<svg id="_x31__x2C_5" height="512" viewBox="0 0 36 36" width="512" xmlns="http://www.w3.org/2000/svg"><path d="m4.167 8.377c0 6.917-3.583 11.667-3.583 15s1.916 10.333 17.249 10.333 17.583-9.417 17.583-13.083c.001-17.167-31.249-24.5-31.249-12.25z" fill="#efefef"/><path d="m22.5 4c-.827 0-1.5-.673-1.5-1.5s.673-1.5 1.5-1.5 1.5.673 1.5 1.5-.673 1.5-1.5 1.5zm0-2c-.275 0-.5.225-.5.5s.225.5.5.5.5-.225.5-.5-.225-.5-.5-.5z" fill="#a4afc1"/><path d="m26.25 14.75h-16.5c-.552 0-1-.448-1-1v-1c0-.552.448-1 1-1h16.5c.552 0 1 .448 1 1v1c0 .552-.448 1-1 1z" fill="#f3f3f1"/><path d="m10.5 11.75 3.243-3.243c1.125-1.125 2.651-1.757 4.243-1.757h.029c1.591 0 3.117.632 4.243 1.757l3.242 3.243z" fill="#2fdf84"/><path d="m10.59 14.75c-.95 3.18-1.15 6.24-.32 9.12.26.91.1 1.89-.47 2.65l-.85 1.13c-.13.17-.2.38-.2.6 0 .55.45 1 1 1h16.5c.55 0 1-.45 1-1 0-.22-.07-.43-.2-.6l-.85-1.13c-.57-.76-.73-1.74-.47-2.65.83-2.88.63-5.94-.32-9.12z" fill="#f3f3f1"/><ellipse cx="18" cy="22" fill="#2fdf84" rx="3.69" ry="4.744" transform="matrix(.707 -.707 .707 .707 -10.284 19.172)"/><path d="m11 13.75v-1c0-.552.448-1 1-1h-2.25c-.552 0-1 .448-1 1v1c0 .552.448 1 1 1h2.25c-.552 0-1-.448-1-1z" fill="#d5dbe1"/><path d="m11 28.25c0-.22.07-.43.2-.6l.85-1.13c.57-.76.73-1.74.47-2.65-.83-2.88-.63-5.94.32-9.12h-2.25c-.95 3.18-1.15 6.24-.32 9.12.26.91.1 1.89-.47 2.65l-.85 1.13c-.13.17-.2.38-.2.6 0 .55.45 1 1 1h2.25c-.55 0-1-.45-1-1z" fill="#d5dbe1"/><path d="m19.125 6.857c-.364-.069-.735-.107-1.11-.107h-.029c-1.591 0-3.117.632-4.243 1.757l-3.243 3.243h2.25l3.243-3.243c.859-.859 1.954-1.429 3.132-1.65z" fill="#00b871"/><path d="m17.641 24.609c-1.853-1.853-2.186-4.523-.745-5.964.343-.343.759-.578 1.213-.724-1.302-.352-2.602-.137-3.463.724-1.441 1.441-1.107 4.111.745 5.964 1.412 1.412 3.295 1.935 4.75 1.469-.877-.237-1.754-.723-2.5-1.469z" fill="#00b871"/><path d="m26.25 15.5h-16.5c-.965 0-1.75-.785-1.75-1.75v-1c0-.965.785-1.75 1.75-1.75h16.5c.965 0 1.75.785 1.75 1.75v1c0 .965-.785 1.75-1.75 1.75zm-16.5-3c-.138 0-.25.112-.25.25v1c0 .138.112.25.25.25h16.5c.138 0 .25-.112.25-.25v-1c0-.138-.112-.25-.25-.25z"/><path d="m24.97 12.28-3.242-3.242c-.993-.992-2.311-1.538-3.713-1.538-1.432 0-2.75.546-3.742 1.538l-3.243 3.242-1.06-1.06 3.242-3.242c1.275-1.276 2.971-1.978 4.773-1.978 1.832 0 3.527.702 4.803 1.978l3.242 3.242z"/><path d="m26.25 30h-16.5c-.965 0-1.75-.785-1.75-1.75 0-.382.126-.756.354-1.055l.846-1.126c.423-.563.55-1.29.349-1.992-.823-2.859-.715-6.07.322-9.542l1.438.43c-.968 3.236-1.071 6.082-.318 8.698.332 1.159.117 2.364-.591 3.307l-.85 1.131c-.034.045-.05.094-.05.149 0 .136.114.25.25.25h16.5c.136 0 .25-.114.25-.25 0-.055-.016-.104-.046-.145l-.854-1.136c-.708-.942-.923-2.147-.591-3.307.753-2.616.649-5.462-.318-8.698l1.438-.43c1.037 3.472 1.146 6.683.322 9.542-.201.702-.074 1.429.349 1.992l.85 1.131c.224.295.35.669.35 1.051 0 .965-.785 1.75-1.75 1.75z"/><path d="m19.059 27.001c-.204 0-.413-.013-.624-.04-1.292-.161-2.561-.808-3.574-1.821s-1.66-2.282-1.821-3.574c-.171-1.361.212-2.587 1.076-3.45.863-.864 2.093-1.254 3.45-1.076 1.292.161 2.561.808 3.574 1.821s1.66 2.282 1.821 3.574c.171 1.361-.212 2.587-1.076 3.45-.73.729-1.717 1.116-2.826 1.116zm-2.111-8.501c-.711 0-1.33.233-1.772.676-.53.529-.76 1.313-.648 2.204.12.962.615 1.921 1.394 2.699s1.737 1.273 2.699 1.394c.886.111 1.674-.119 2.204-.648s.76-1.313.648-2.204c-.12-.962-.615-1.921-1.394-2.699s-1.737-1.273-2.699-1.394c-.147-.019-.291-.028-.432-.028z"/><path d="m20.211 26.232c-.504-.667-.554-1.303-.594-1.813-.038-.491-.063-.815-.457-1.209-.398-.395-.726-.422-1.222-.463-.609-.05-1.367-.111-2.157-.894-.788-.797-.852-1.586-.898-2.162-.032-.41-.057-.706-.293-1.022l1.201-.898c.496.663.547 1.294.587 1.801.04.493.066.819.465 1.222.396.392.723.419 1.219.46.609.05 1.367.111 2.157.894.787.788.849 1.578.894 2.155.032.412.056.709.296 1.026z"/></svg>